<?xml version="1.0" encoding="UTF-8" standalone="no"?>
<!-- Created with Inkscape (http://www.inkscape.org/) -->

<svg
   xmlns:dc="http://purl.org/dc/elements/1.1/"
   xmlns:cc="http://creativecommons.org/ns#"
   xmlns:rdf="http://www.w3.org/1999/02/22-rdf-syntax-ns#"
   xmlns:svg="http://www.w3.org/2000/svg"
   xmlns="http://www.w3.org/2000/svg"
   xmlns:sodipodi="http://sodipodi.sourceforge.net/DTD/sodipodi-0.dtd"
   xmlns:inkscape="http://www.inkscape.org/namespaces/inkscape"
   width="270"
   height="380"
   viewBox="0 0 71.437502 100.54167"
   version="1.1"
   id="svg8"
   inkscape:version="0.92.2 5c3e80d, 2017-08-06"
   sodipodi:docname="Stitcher.svg">
  <defs
     id="defs2" />
  <sodipodi:namedview
     id="base"
     pagecolor="#ffffff"
     bordercolor="#666666"
     borderopacity="1.0"
     inkscape:pageopacity="0.0"
     inkscape:pageshadow="2"
     inkscape:zoom="0.98994949"
     inkscape:cx="131.90628"
     inkscape:cy="212.01533"
     inkscape:document-units="mm"
     inkscape:current-layer="layer1"
     showgrid="false"
     units="px"
     inkscape:snap-bbox="true"
     inkscape:snap-page="true"
     inkscape:bbox-nodes="true"
     inkscape:snap-bbox-edge-midpoints="true"
     inkscape:window-width="1280"
     inkscape:window-height="756"
     inkscape:window-x="0"
     inkscape:window-y="0"
     inkscape:window-maximized="0" />
  <metadata
     id="metadata5">
    <rdf:RDF>
      <cc:Work
         rdf:about="">
        <dc:format>image/svg+xml</dc:format>
        <dc:type
           rdf:resource="http://purl.org/dc/dcmitype/StillImage" />
        <dc:title></dc:title>
      </cc:Work>
    </rdf:RDF>
  </metadata>
  <g
     inkscape:label="Layer 1"
     inkscape:groupmode="layer"
     id="layer1"
     transform="translate(0,-196.45832)">
    <path
       style="opacity:1;vector-effect:none;fill:#f0f0f0;fill-opacity:1;fill-rule:evenodd;stroke:none;stroke-width:0.8418991;stroke-linecap:butt;stroke-linejoin:round;stroke-miterlimit:4;stroke-dasharray:none;stroke-dashoffset:0;stroke-opacity:1;paint-order:normal"
       d="M 0,296.99999 H 71.4375 V 196.45831 H 0 Z"
       id="rect817"
       inkscape:connector-curvature="0" />
    <g
       aria-label="1V/oct"
       style="font-style:normal;font-variant:normal;font-weight:normal;font-stretch:normal;font-size:2.82222223px;line-height:6.61458302px;font-family:DINPro;-inkscape-font-specification:DINPro;font-variant-ligatures:normal;font-variant-caps:normal;font-variant-numeric:normal;font-feature-settings:normal;text-align:center;letter-spacing:0px;word-spacing:0px;writing-mode:lr-tb;text-anchor:middle;fill:#000000;fill-opacity:1;stroke:none;stroke-width:0.26458332px;stroke-linecap:butt;stroke-linejoin:miter;stroke-opacity:1"
       id="text950"
       transform="translate(0,-6.0862931)">
      <path
         d="m 8.7942542,262.66519 v -2.00942 h -0.2032 l -0.3753555,0.32455 v 0.23143 l 0.3753555,-0.3302 v 1.78364 z"
         style="font-size:2.82222223px;text-align:center;text-anchor:middle;stroke-width:0.26458332px"
         id="path984"
         inkscape:connector-curvature="0" />
      <path
         d="m 10.853021,260.65577 h -0.225778 l -0.522111,1.6256 -0.5221108,-1.6256 H 9.3572434 l 0.6603996,2.00942 h 0.174978 z"
         style="font-size:2.82222223px;text-align:center;text-anchor:middle;stroke-width:0.26458332px"
         id="path986"
         inkscape:connector-curvature="0" />
      <path
         d="m 11.88278,260.44692 h -0.200378 l -0.804333,2.42712 h 0.200377 z"
         style="font-size:2.82222223px;text-align:center;text-anchor:middle;stroke-width:0.26458332px"
         id="path988"
         inkscape:connector-curvature="0" />
      <path
         d="m 13.196436,261.97092 c 0,-0.21448 -0.02822,-0.40922 -0.169334,-0.55315 -0.09596,-0.096 -0.2286,-0.15805 -0.397933,-0.15805 -0.169333,0 -0.301978,0.0621 -0.397933,0.15805 -0.141111,0.14393 -0.169334,0.33867 -0.169334,0.55315 0,0.21449 0.02822,0.40923 0.169334,0.55316 0.09595,0.096 0.2286,0.15804 0.397933,0.15804 0.169333,0 0.301978,-0.0621 0.397933,-0.15804 0.141111,-0.14393 0.169334,-0.33867 0.169334,-0.55316 z m -0.2032,0 c 0,0.15523 -0.0085,0.32738 -0.110067,0.42898 -0.06491,0.0649 -0.155222,0.1016 -0.254,0.1016 -0.09878,0 -0.186267,-0.0367 -0.251178,-0.1016 -0.1016,-0.1016 -0.112889,-0.27375 -0.112889,-0.42898 0,-0.15522 0.01129,-0.32737 0.112889,-0.42897 0.06491,-0.0649 0.1524,-0.1016 0.251178,-0.1016 0.09878,0 0.189089,0.0367 0.254,0.1016 0.1016,0.1016 0.110067,0.27375 0.110067,0.42897 z"
         style="font-size:2.82222223px;text-align:center;text-anchor:middle;stroke-width:0.26458332px"
         id="path990"
         inkscape:connector-curvature="0" />
      <path
         d="m 14.625318,262.4761 -0.138289,-0.13264 c -0.104422,0.11571 -0.186267,0.15804 -0.318911,0.15804 -0.135467,0 -0.248356,-0.0536 -0.321733,-0.15804 -0.06491,-0.0903 -0.09031,-0.19756 -0.09031,-0.37254 0,-0.17497 0.0254,-0.28222 0.09031,-0.37253 0.07338,-0.10442 0.186266,-0.15804 0.321733,-0.15804 0.132644,0 0.214489,0.0395 0.318911,0.15522 l 0.138289,-0.12982 c -0.143933,-0.15523 -0.265289,-0.20603 -0.4572,-0.20603 -0.349956,0 -0.615244,0.23707 -0.615244,0.7112 0,0.47414 0.265288,0.7112 0.615244,0.7112 0.191911,0 0.313267,-0.0508 0.4572,-0.20602 z"
         style="font-size:2.82222223px;text-align:center;text-anchor:middle;stroke-width:0.26458332px"
         id="path992"
         inkscape:connector-curvature="0" />
      <path
         d="m 15.546024,262.66519 v -0.17498 H 15.43878 c -0.129822,0 -0.189089,-0.0762 -0.189089,-0.2032 v -0.84666 h 0.296333 v -0.15523 h -0.296333 v -0.43462 h -0.2032 v 0.43462 h -0.174978 v 0.15523 h 0.174978 v 0.85231 c 0,0.20602 0.118533,0.37253 0.3556,0.37253 z"
         style="font-size:2.82222223px;text-align:center;text-anchor:middle;stroke-width:0.26458332px"
         id="path994"
         inkscape:connector-curvature="0" />
    </g>
    <text
       xml:space="preserve"
       style="font-style:normal;font-weight:normal;font-size:10.58333302px;line-height:1.25;font-family:sans-serif;letter-spacing:0px;word-spacing:0px;fill:#000000;fill-opacity:1;stroke:none;stroke-width:0.26458332"
       x="2.1166668"
       y="207.11049"
       id="text3842"><tspan
         sodipodi:role="line"
         id="tspan3840"
         x="2.1166668"
         y="207.11049"
         style="font-size:7.05555534px;stroke-width:0.26458332">stitcher</tspan></text>
    <text
       xml:space="preserve"
       style="font-style:normal;font-weight:normal;font-size:4.23333311px;line-height:1.25;font-family:sans-serif;letter-spacing:0px;word-spacing:0px;fill:#000000;fill-opacity:1;stroke:none;stroke-width:0.26458332"
       x="7.4094768"
       y="288.56403"
       id="text3531"><tspan
         sodipodi:role="line"
         id="tspan3529"
         x="7.4094768"
         y="288.56403"
         style="font-size:2.82222223px;stroke-width:0.26458332">g_rate</tspan></text>
    <text
       xml:space="preserve"
       style="font-style:normal;font-weight:normal;font-size:4.23333311px;line-height:1.25;font-family:sans-serif;letter-spacing:0px;word-spacing:0px;fill:#000000;fill-opacity:1;stroke:none;stroke-width:0.26458332"
       x="36.228352"
       y="292.25119"
       id="text3535"><tspan
         sodipodi:role="line"
         id="tspan3533"
         x="36.228352"
         y="292.25119"
         style="font-size:2.82222223px;stroke-width:0.26458332">out</tspan></text>
    <circle
       id="path201"
       cx="35.71875"
       cy="246.78014"
       style="stroke-width:0.23811285"
       r="5.2916665" />
    <path
       style="fill:none;stroke:#000000;stroke-width:0.26458332px;stroke-linecap:butt;stroke-linejoin:miter;stroke-opacity:1"
       d="M 6.1430632,217.20445 30.333539,241.39493"
       id="path203"
       inkscape:connector-curvature="0" />
  </g>
</svg>
