<?xml version="1.0" encoding="UTF-8" standalone="no"?>
<!-- Created with Inkscape (http://www.inkscape.org/) -->

<svg
   xmlns:dc="http://purl.org/dc/elements/1.1/"
   xmlns:cc="http://creativecommons.org/ns#"
   xmlns:rdf="http://www.w3.org/1999/02/22-rdf-syntax-ns#"
   xmlns:svg="http://www.w3.org/2000/svg"
   xmlns="http://www.w3.org/2000/svg"
   xmlns:sodipodi="http://sodipodi.sourceforge.net/DTD/sodipodi-0.dtd"
   xmlns:inkscape="http://www.inkscape.org/namespaces/inkscape"
   width="270"
   height="380"
   viewBox="0 0 71.437502 100.54167"
   version="1.1"
   id="svg271"
   inkscape:version="0.92.2 5c3e80d, 2017-08-06"
   sodipodi:docname="Stitch.svg">
  <defs
     id="defs265" />
  <sodipodi:namedview
     id="base"
     pagecolor="#ffffff"
     bordercolor="#666666"
     borderopacity="1.0"
     inkscape:pageopacity="0.0"
     inkscape:pageshadow="2"
     inkscape:zoom="1.4142136"
     inkscape:cx="149.27402"
     inkscape:cy="205.07063"
     inkscape:document-units="mm"
     inkscape:current-layer="layer1"
     showgrid="false"
     inkscape:window-width="1280"
     inkscape:window-height="755"
     inkscape:window-x="0"
     inkscape:window-y="1"
     inkscape:window-maximized="1"
     units="px"
     inkscape:snap-page="true"
     showguides="false"
     inkscape:measure-start="145.711,298.125"
     inkscape:measure-end="145.711,380" />
  <metadata
     id="metadata268">
    <rdf:RDF>
      <cc:Work
         rdf:about="">
        <dc:format>image/svg+xml</dc:format>
        <dc:type
           rdf:resource="http://purl.org/dc/dcmitype/StillImage" />
        <dc:title />
      </cc:Work>
    </rdf:RDF>
  </metadata>
  <g
     inkscape:groupmode="layer"
     id="layer4"
     inkscape:label="base"
     sodipodi:insensitive="true">
    <path
       transform="translate(0,-196.45833)"
       style="display:inline;opacity:1;fill:#f0f0f0;fill-opacity:1;stroke-width:1.04806435"
       d="M 0,196.45833 H 71.4375 V 297 H 0 Z"
       id="rect5439"
       inkscape:connector-curvature="0" />
  </g>
  <g
     inkscape:label="Layer 1"
     inkscape:groupmode="layer"
     id="layer1"
     transform="translate(0,-196.45833)"
     style="display:inline">
    <text
       xml:space="preserve"
       style="font-style:normal;font-weight:normal;font-size:10.58333302px;line-height:1.25;font-family:sans-serif;letter-spacing:0px;word-spacing:0px;fill:#000000;fill-opacity:1;stroke:none;stroke-width:0.26458332"
       x="28.915178"
       y="203.07291"
       id="text13050"><tspan
         sodipodi:role="line"
         id="tspan13048"
         x="28.915178"
         y="212.43668"
         style="stroke-width:0.26458332" /></text>
    <g
       aria-label="global control"
       transform="rotate(88.907405)"
       style="font-style:normal;font-weight:normal;font-size:10.58333302px;line-height:1.25;font-family:sans-serif;letter-spacing:0px;word-spacing:0px;fill:#000000;fill-opacity:1;stroke:none;stroke-width:0.26458332"
       id="text13182">
      <path
         d="m 274.98003,-37.308975 q 0,0.06666 -0.0868,0.06666 h -0.11007 l 0.002,1.294495 q 0,0.21084 -0.15813,0.359668 -0.15813,0.148828 -0.37052,0.148828 h -0.36897 q -0.0868,0 -0.0868,-0.06511 0,-0.06666 0.0868,-0.06666 l 0.37362,0.0016 q 0.23875,0.0016 0.35967,-0.230993 0.0341,-0.06356 0.0341,-0.165882 l 0.003,-0.448034 q -0.20154,0.271301 -0.53485,0.271301 -0.27285,0 -0.46509,-0.187585 -0.19224,-0.189136 -0.19224,-0.461988 0,-0.272851 0.19224,-0.461987 0.19224,-0.189136 0.46509,-0.189136 0.32866,0 0.5302,0.268201 v -0.198438 h 0.24029 q 0.0868,0 0.0868,0.06511 z m -0.31936,0.516247 q 0,-0.223242 -0.15813,-0.376721 -0.15658,-0.155029 -0.38137,-0.155029 -0.22325,0 -0.38138,0.155029 -0.15657,0.153479 -0.15657,0.376721 0,0.221692 0.15813,0.376722 0.15813,0.155029 0.37982,0.155029 0.22324,0 0.38137,-0.153479 0.15813,-0.155029 0.15813,-0.378272 z"
         style="font-style:normal;font-variant:normal;font-weight:normal;font-stretch:normal;font-size:3.17499995px;font-family:'Serto Kharput';-inkscape-font-specification:'Serto Kharput';stroke-width:0.26458332"
         id="path17581" />
      <path
         d="m 276.00942,-36.256326 q 0,0.06511 -0.0868,0.06511 h -0.35037 q -0.0868,0 -0.0868,-0.06511 0,-0.06666 0.0868,-0.06666 h 0.11007 v -1.683618 h -0.11007 q -0.0868,0 -0.0868,-0.06666 0,-0.06511 0.0868,-0.06511 h 0.2403 v 1.815393 h 0.11007 q 0.0868,0 0.0868,0.06666 z"
         style="font-style:normal;font-variant:normal;font-weight:normal;font-stretch:normal;font-size:3.17499995px;font-family:'Serto Kharput';-inkscape-font-specification:'Serto Kharput';stroke-width:0.26458332"
         id="path17583" />
      <path
         d="m 277.79226,-36.792728 q 0,0.271302 -0.19224,0.460437 -0.19068,0.189136 -0.46353,0.189136 -0.27285,0 -0.46509,-0.187585 -0.19224,-0.189136 -0.19224,-0.461988 0,-0.272851 0.19224,-0.461987 0.19224,-0.189136 0.46509,-0.189136 0.27285,0 0.46353,0.189136 0.19224,0.189136 0.19224,0.461987 z m -0.11782,0 q 0,-0.223242 -0.15813,-0.376721 -0.15658,-0.155029 -0.38137,-0.155029 -0.22325,0 -0.38138,0.155029 -0.15658,0.153479 -0.15658,0.376721 0,0.221692 0.15813,0.376722 0.15813,0.155029 0.37983,0.155029 0.22324,0 0.38137,-0.153479 0.15813,-0.155029 0.15813,-0.378272 z"
         style="font-style:normal;font-variant:normal;font-weight:normal;font-stretch:normal;font-size:3.17499995px;font-family:'Serto Kharput';-inkscape-font-specification:'Serto Kharput';stroke-width:0.26458332"
         id="path17585" />
      <path
         d="m 279.77353,-36.774124 q 0,0.272851 -0.19223,0.461987 -0.19069,0.189136 -0.46354,0.189136 -0.33796,0 -0.53795,-0.275952 v 0.206189 h -0.2403 q -0.0868,0 -0.0868,-0.06511 0,-0.06666 0.0868,-0.06666 h 0.11007 v -1.672766 h -0.11007 q -0.0868,0 -0.0868,-0.06666 0,-0.06511 0.0868,-0.06511 h 0.2403 l 0.002,0.979785 q 0.19999,-0.274402 0.5364,-0.274402 0.27285,0 0.46354,0.189136 0.19223,0.189136 0.19223,0.460437 z m -0.11782,0 q 0,-0.223242 -0.15813,-0.376721 -0.15813,-0.15503 -0.38137,-0.15503 -0.22169,0 -0.37982,0.15503 -0.15813,0.155029 -0.15813,0.376721 0,0.223242 0.15658,0.378271 0.15813,0.153479 0.38137,0.153479 0.22479,0 0.38137,-0.153479 0.15813,-0.155029 0.15813,-0.378271 z"
         style="font-style:normal;font-variant:normal;font-weight:normal;font-stretch:normal;font-size:3.17499995px;font-family:'Serto Kharput';-inkscape-font-specification:'Serto Kharput';stroke-width:0.26458332"
         id="path17587" />
      <path
         d="m 281.47576,-36.257877 q 0,0.06511 -0.0868,0.06511 h -0.22789 v -0.168982 q -0.2558,0.215491 -0.54726,0.215491 -0.18448,0 -0.3085,-0.08992 -0.14108,-0.10077 -0.14108,-0.279053 0,-0.218592 0.21084,-0.333313 0.16898,-0.09302 0.40463,-0.09302 0.16743,0 0.38137,0.04341 v -0.190686 q 0,-0.125573 -0.12403,-0.189135 -0.0961,-0.04961 -0.23409,-0.04961 -0.0884,0 -0.25425,0.04806 -0.16433,0.04651 -0.18758,0.04651 -0.0543,0 -0.0543,-0.05891 0,-0.0217 0.0139,-0.03876 0.0264,-0.03101 0.22789,-0.07441 0.18759,-0.04186 0.26045,-0.04186 0.17983,0 0.31471,0.08682 0.15658,0.09922 0.15658,0.271301 l -0.002,0.764295 h 0.11007 q 0.0868,0 0.0868,0.06666 z m -0.31471,-0.260449 v -0.258899 q -0.15968,-0.04651 -0.36897,-0.04651 -0.18139,0 -0.32401,0.06511 -0.18604,0.08372 -0.18604,0.243396 0,0.127124 0.10387,0.193786 0.0884,0.05736 0.22324,0.05736 0.28681,0 0.55191,-0.254248 z"
         style="font-style:normal;font-variant:normal;font-weight:normal;font-stretch:normal;font-size:3.17499995px;font-family:'Serto Kharput';-inkscape-font-specification:'Serto Kharput';stroke-width:0.26458332"
         id="path17589" />
      <path
         d="m 282.47105,-36.256326 q 0,0.06511 -0.0868,0.06511 h -0.35037 q -0.0868,0 -0.0868,-0.06511 0,-0.06666 0.0868,-0.06666 h 0.11007 v -1.683618 h -0.11007 q -0.0868,0 -0.0868,-0.06666 0,-0.06511 0.0868,-0.06511 h 0.2403 v 1.815393 h 0.11007 q 0.0868,0 0.0868,0.06666 z"
         style="font-style:normal;font-variant:normal;font-weight:normal;font-stretch:normal;font-size:3.17499995px;font-family:'Serto Kharput';-inkscape-font-specification:'Serto Kharput';stroke-width:0.26458332"
         id="path17591" />
      <path
         d="m 285.29413,-36.439261 q 0,0.06046 -0.14263,0.153479 -0.22634,0.148828 -0.50694,0.148828 -0.28371,0 -0.46664,-0.178283 -0.18294,-0.179834 -0.18294,-0.461988 0,-0.285254 0.18604,-0.471289 0.18603,-0.187585 0.47129,-0.187585 0.26975,0 0.45423,0.16123 v -0.05116 q 0.002,-0.06821 0.0574,-0.06821 0.0605,0 0.0605,0.07906 v 0.26665 q 0,0.07906 -0.0605,0.07906 -0.0233,0 -0.0387,-0.0155 l -0.0279,-0.09147 q -0.0233,-0.07906 -0.12247,-0.151929 -0.12092,-0.08837 -0.32866,-0.08837 -0.23875,0 -0.38603,0.150379 -0.14728,0.148828 -0.14728,0.387573 0,0.234094 0.15038,0.379822 0.15193,0.145727 0.38603,0.145727 0.29455,0 0.5364,-0.21394 0.0326,-0.02791 0.0512,-0.02791 0.0574,0 0.0574,0.05581 z"
         style="font-style:normal;font-variant:normal;font-weight:normal;font-stretch:normal;font-size:3.17499995px;font-family:'Serto Kharput';-inkscape-font-specification:'Serto Kharput';stroke-width:0.26458332"
         id="path17593" />
      <path
         d="m 287.0072,-36.792728 q 0,0.271302 -0.19223,0.460437 -0.19069,0.189136 -0.46354,0.189136 -0.27285,0 -0.46509,-0.187585 -0.19224,-0.189136 -0.19224,-0.461988 0,-0.272851 0.19224,-0.461987 0.19224,-0.189136 0.46509,-0.189136 0.27285,0 0.46354,0.189136 0.19223,0.189136 0.19223,0.461987 z m -0.11782,0 q 0,-0.223242 -0.15813,-0.376721 -0.15658,-0.155029 -0.38137,-0.155029 -0.22324,0 -0.38137,0.155029 -0.15658,0.153479 -0.15658,0.376721 0,0.221692 0.15813,0.376722 0.15813,0.155029 0.37982,0.155029 0.22324,0 0.38137,-0.153479 0.15813,-0.155029 0.15813,-0.378272 z"
         style="font-style:normal;font-variant:normal;font-weight:normal;font-stretch:normal;font-size:3.17499995px;font-family:'Serto Kharput';-inkscape-font-specification:'Serto Kharput';stroke-width:0.26458332"
         id="path17595" />
      <path
         d="m 288.99623,-36.256326 q 0,0.06511 -0.0868,0.06511 h -0.35037 q -0.0868,0 -0.0868,-0.06511 0,-0.06666 0.0868,-0.06666 h 0.11008 l -0.002,-0.63717 q 0,-0.151929 -0.11163,-0.243396 -0.10387,-0.08527 -0.25889,-0.08527 -0.15813,0 -0.28061,0.09147 -0.0713,0.05271 -0.21239,0.218591 l 0.002,0.655774 h 0.11007 q 0.0868,0 0.0868,0.06666 0,0.06511 -0.0868,0.06511 h -0.35036 q -0.0868,0 -0.0868,-0.06511 0,-0.06666 0.0868,-0.06666 h 0.11007 l -0.002,-0.919324 h -0.11007 q -0.0868,0 -0.0868,-0.06666 0,-0.06511 0.0868,-0.06511 h 0.24029 v 0.196888 q 0.2403,-0.243396 0.49455,-0.243396 0.19843,0 0.34416,0.117822 0.15503,0.125574 0.15503,0.320911 l 0.002,0.658874 h 0.11007 q 0.0868,0 0.0868,0.06666 z"
         style="font-style:normal;font-variant:normal;font-weight:normal;font-stretch:normal;font-size:3.17499995px;font-family:'Serto Kharput';-inkscape-font-specification:'Serto Kharput';stroke-width:0.26458332"
         id="path17597" />
      <path
         d="m 290.81782,-36.355545 q 0,0.07596 -0.19844,0.153479 -0.15347,0.06046 -0.2899,0.06046 -0.19379,0 -0.32401,-0.09922 -0.14263,-0.108521 -0.14263,-0.296106 l -0.002,-0.705384 h -0.31781 q -0.0868,0 -0.0868,-0.06666 0,-0.06511 0.0868,-0.06511 h 0.31781 l 0.002,-0.545703 q 0,-0.08682 0.0651,-0.08682 0.0667,0 0.0667,0.08682 l -0.002,0.545703 h 0.62942 q 0.0868,0 0.0868,0.06666 0,0.06511 -0.0868,0.06511 h -0.62942 l 0.002,0.705384 q 0,0.127124 0.10232,0.199987 0.0915,0.06511 0.22324,0.06511 0.0574,0 0.20774,-0.04031 0.0326,-0.0078 0.12867,-0.06046 0.0899,-0.04806 0.0992,-0.04806 0.062,0 0.062,0.06511 z"
         style="font-style:normal;font-variant:normal;font-weight:normal;font-stretch:normal;font-size:3.17499995px;font-family:'Serto Kharput';-inkscape-font-specification:'Serto Kharput';stroke-width:0.26458332"
         id="path17599" />
      <path
         d="m 292.42703,-37.209756 q 0,0.06821 -0.0682,0.06821 -0.0233,0 -0.0977,-0.06666 -0.0744,-0.06821 -0.14262,-0.06821 -0.12558,0 -0.33487,0.15658 -0.0791,0.05891 -0.2868,0.244946 v 0.553454 q 0.13023,0 0.11782,-0.0016 0.0791,0.0093 0.0791,0.06666 0,0.06511 -0.0868,0.06511 h -0.34881 q -0.0884,0 -0.0884,-0.06511 0,-0.05736 0.0791,-0.06666 -0.0124,0.0016 0.11783,0.0016 v -0.920874 q -0.12868,0 -0.11938,0.0016 -0.0775,-0.0093 -0.0775,-0.06821 0,-0.06511 0.0868,-0.06511 h 0.24029 v 0.328663 q 0.18759,-0.168982 0.2806,-0.232544 0.18604,-0.128675 0.33332,-0.128675 0.0791,0 0.19223,0.06201 0.12403,0.06821 0.12403,0.134876 z"
         style="font-style:normal;font-variant:normal;font-weight:normal;font-stretch:normal;font-size:3.17499995px;font-family:'Serto Kharput';-inkscape-font-specification:'Serto Kharput';stroke-width:0.26458332"
         id="path17601" />
      <path
         d="m 294.20676,-36.792728 q 0,0.271302 -0.19223,0.460437 -0.19069,0.189136 -0.46354,0.189136 -0.27285,0 -0.46509,-0.187585 -0.19224,-0.189136 -0.19224,-0.461988 0,-0.272851 0.19224,-0.461987 0.19224,-0.189136 0.46509,-0.189136 0.27285,0 0.46354,0.189136 0.19223,0.189136 0.19223,0.461987 z m -0.11782,0 q 0,-0.223242 -0.15813,-0.376721 -0.15658,-0.155029 -0.38137,-0.155029 -0.22324,0 -0.38137,0.155029 -0.15658,0.153479 -0.15658,0.376721 0,0.221692 0.15813,0.376722 0.15813,0.155029 0.37982,0.155029 0.22324,0 0.38137,-0.153479 0.15813,-0.155029 0.15813,-0.378272 z"
         style="font-style:normal;font-variant:normal;font-weight:normal;font-stretch:normal;font-size:3.17499995px;font-family:'Serto Kharput';-inkscape-font-specification:'Serto Kharput';stroke-width:0.26458332"
         id="path17603" />
      <path
         d="m 295.20205,-36.256326 q 0,0.06511 -0.0868,0.06511 h -0.35036 q -0.0868,0 -0.0868,-0.06511 0,-0.06666 0.0868,-0.06666 h 0.11007 v -1.683618 h -0.11007 q -0.0868,0 -0.0868,-0.06666 0,-0.06511 0.0868,-0.06511 h 0.24029 v 1.815393 h 0.11007 q 0.0868,0 0.0868,0.06666 z"
         style="font-style:normal;font-variant:normal;font-weight:normal;font-stretch:normal;font-size:3.17499995px;font-family:'Serto Kharput';-inkscape-font-specification:'Serto Kharput';stroke-width:0.26458332"
         id="path17605" />
    </g>
    <rect
       id="rect13327"
       width="12.095239"
       height="10.961308"
       x="57.301189"
       y="284.1489"
       style="stroke-width:0.26458332"
       ry="3.2127976" />
    <path
       style="fill:none;stroke:#000000;stroke-width:0.26458332px;stroke-linecap:butt;stroke-linejoin:miter;stroke-opacity:1"
       d="m 40.29226,198.04583 v 96.8375"
       id="path13504"
       inkscape:connector-curvature="0"
       sodipodi:nodetypes="cc" />
    <path
       style="fill:none;stroke:#000000;stroke-width:0.26458332px;stroke-linecap:butt;stroke-linejoin:miter;stroke-opacity:1"
       d="M 0,221.46146 H 40.254465"
       id="path13536"
       inkscape:connector-curvature="0" />
    <path
       inkscape:connector-curvature="0"
       id="path13538"
       d="M 0,246.59687 H 40.254465"
       style="fill:none;stroke:#000000;stroke-width:0.26458332px;stroke-linecap:butt;stroke-linejoin:miter;stroke-opacity:1" />
    <path
       style="fill:none;stroke:#000000;stroke-width:0.26458332px;stroke-linecap:butt;stroke-linejoin:miter;stroke-opacity:1"
       d="M 0,271.73229 H 40.254465"
       id="path13540"
       inkscape:connector-curvature="0" />
    <g
       aria-label="freq"
       style="font-style:normal;font-weight:normal;font-size:10.58333302px;line-height:1.25;font-family:sans-serif;letter-spacing:0px;word-spacing:0px;display:inline;fill:#000000;fill-opacity:1;stroke:none;stroke-width:0.26458332"
       id="text13654">
      <path
         d="m 53.164317,208.06831 q 0,0.0565 -0.06063,0.0565 -0.05788,0 -0.173633,-0.0248 -0.115755,-0.0262 -0.175011,-0.0262 -0.192925,0 -0.27423,0.0717 -0.0689,0.0593 -0.0813,0.19568 0,0.008 -0.0028,0.29627 h 0.250803 q 0.07717,0 0.07717,0.0579 0,0.0593 -0.07717,0.0593 H 52.39675 l 0.0014,0.81717 h 0.09784 q 0.07717,0 0.07717,0.0593 0,0.0579 -0.07717,0.0579 h -0.311437 q -0.07717,0 -0.07717,-0.0579 0,-0.0593 0.07717,-0.0593 h 0.09784 l -0.0028,-0.81717 H 52.02879 q -0.07717,0 -0.07717,-0.0593 0,-0.0579 0.07717,-0.0579 h 0.250803 l 0.0028,-0.31832 q 0.0014,-0.18466 0.157096,-0.28112 0.130914,-0.0827 0.327973,-0.0827 0.04685,0 0.201194,0.0262 0.165364,0.0289 0.180523,0.0468 0.01516,0.0165 0.01516,0.04 z"
         style="font-style:normal;font-variant:normal;font-weight:normal;font-stretch:normal;font-size:2.82222223px;font-family:'Serto Kharput';-inkscape-font-specification:'Serto Kharput';stroke-width:0.26458332"
         id="path13656"
         inkscape:connector-curvature="0" />
      <path
         d="m 54.695318,208.78351 q 0,0.0606 -0.06063,0.0606 -0.02067,0 -0.08682,-0.0593 -0.06615,-0.0606 -0.12678,-0.0606 -0.111621,0 -0.297656,0.13918 -0.07028,0.0524 -0.254937,0.21773 v 0.49196 q 0.115755,0 0.104731,-0.001 0.07028,0.008 0.07028,0.0593 0,0.0579 -0.07717,0.0579 h -0.310058 q -0.07855,0 -0.07855,-0.0579 0,-0.051 0.07028,-0.0593 -0.01103,0.001 0.104731,0.001 v -0.81855 q -0.114378,0 -0.106109,0.001 -0.0689,-0.008 -0.0689,-0.0606 0,-0.0579 0.07717,-0.0579 h 0.213596 v 0.29215 q 0.166742,-0.15021 0.249425,-0.20671 0.165364,-0.11437 0.296278,-0.11437 0.07028,0 0.170877,0.0551 0.110243,0.0606 0.110243,0.11989 z"
         style="font-style:normal;font-variant:normal;font-weight:normal;font-stretch:normal;font-size:2.82222223px;font-family:'Serto Kharput';-inkscape-font-specification:'Serto Kharput';stroke-width:0.26458332"
         id="path13658"
         inkscape:connector-curvature="0" />
      <path
         d="m 56.282818,209.51525 q 0,0.0758 -0.231511,0.15847 -0.152962,0.0537 -0.312814,0.0537 -0.261828,0 -0.445107,-0.17087 -0.183279,-0.17088 -0.183279,-0.43133 0,-0.2384 0.175011,-0.39825 0.170877,-0.15572 0.410655,-0.15572 0.261828,0 0.424436,0.1695 0.162609,0.1695 0.159853,0.43132 h -1.063846 q 0.02756,0.20671 0.169499,0.32935 0.143316,0.12127 0.352778,0.12127 0.257693,0 0.453374,-0.14056 0.02618,-0.0193 0.04134,-0.0193 0.04961,0 0.04961,0.0524 z m -0.107487,-0.44787 q -0.03169,-0.17639 -0.165365,-0.2825 -0.13367,-0.10748 -0.314193,-0.10748 -0.181901,0 -0.314192,0.10611 -0.132292,0.10611 -0.163987,0.28387 z"
         style="font-style:normal;font-variant:normal;font-weight:normal;font-stretch:normal;font-size:2.82222223px;font-family:'Serto Kharput';-inkscape-font-specification:'Serto Kharput';stroke-width:0.26458332"
         id="path13660"
         inkscape:connector-curvature="0" />
      <path
         d="m 58.043951,210.29935 q 0,0.0579 -0.07855,0.0579 h -0.310058 q -0.07717,0 -0.07717,-0.0579 0,-0.051 0.07028,-0.0593 -0.0096,0.001 0.10473,0.001 v -0.75379 q -0.179145,0.24392 -0.478179,0.24392 -0.241156,0 -0.412033,-0.16812 -0.170877,-0.16812 -0.170877,-0.40928 0,-0.24254 0.169499,-0.41066 0.170876,-0.16812 0.413411,-0.16812 0.300413,0 0.478179,0.24529 v -0.18328 h 0.213596 q 0.07717,0 0.07717,0.0579 0,0.051 -0.0689,0.0606 0.0083,-10e-4 -0.106109,-10e-4 v 1.4869 q 0.114377,0 0.106109,-0.001 0.0689,0.008 0.0689,0.0593 z m -0.28801,-1.14515 q 0,-0.19844 -0.14056,-0.33486 -0.14056,-0.13781 -0.338998,-0.13781 -0.198437,0 -0.338997,0.13781 -0.139182,0.13642 -0.139182,0.33486 0,0.19844 0.139182,0.33624 0.14056,0.13643 0.338997,0.13643 0.198438,0 0.338998,-0.13781 0.14056,-0.1378 0.14056,-0.33486 z"
         style="font-style:normal;font-variant:normal;font-weight:normal;font-stretch:normal;font-size:2.82222223px;font-family:'Serto Kharput';-inkscape-font-specification:'Serto Kharput';stroke-width:0.26458332"
         id="path13662"
         inkscape:connector-curvature="0" />
    </g>
    <g
       aria-label="1"
       style="font-style:normal;font-weight:normal;font-size:10.58333302px;line-height:1.25;font-family:sans-serif;letter-spacing:0px;word-spacing:0px;display:inline;fill:#000000;fill-opacity:1;stroke:none;stroke-width:0.26458332"
       id="text13672"
       transform="translate(0,-2.6458334)">
      <path
         d="m 38.793268,220.45379 q 0,0.0796 -0.106109,0.0796 h -0.428226 q -0.106109,0 -0.106109,-0.0796 0,-0.0815 0.106109,-0.0815 h 0.134531 v -2.03123 q -0.03979,0.0133 -0.08906,0.0436 -0.03221,0.0208 -0.07958,0.0208 -0.07579,0 -0.07579,-0.0796 0,-0.0549 0.08148,-0.0853 l 0.322117,-0.11938 v 2.25103 h 0.134531 q 0.106109,0 0.106109,0.0815 z"
         style="font-style:normal;font-variant:normal;font-weight:normal;font-stretch:normal;font-size:3.88055563px;font-family:'Serto Kharput';-inkscape-font-specification:'Serto Kharput';stroke-width:0.26458332"
         id="path13694"
         inkscape:connector-curvature="0" />
    </g>
    <g
       aria-label="2"
       style="font-style:normal;font-weight:normal;font-size:10.58333302px;line-height:1.25;font-family:sans-serif;letter-spacing:0px;word-spacing:0px;display:inline;fill:#000000;fill-opacity:1;stroke:none;stroke-width:0.26458332"
       id="text13676"
       transform="translate(0,-2.6458334)">
      <path
         d="m 39.20444,244.87698 h -1.462788 v -0.23495 q 0.299379,-0.26906 0.685919,-0.66697 0.519176,-0.53244 0.585494,-0.70297 0.02842,-0.0739 0.02842,-0.14969 0,-0.21791 -0.174322,-0.37138 -0.166743,-0.1478 -0.388435,-0.1478 -0.202744,0 -0.361907,0.11179 -0.157269,0.1118 -0.216007,0.30317 -0.0057,0.0227 -0.02842,0.0587 -0.02274,0.0189 -0.05306,0.0189 -0.07579,0 -0.07579,-0.0739 0,-0.091 0.09853,-0.24443 0.100424,-0.15537 0.276641,-0.24632 0.170532,-0.0891 0.358118,-0.0891 0.282325,0 0.500227,0.19327 0.225482,0.20085 0.225482,0.48128 0,0.10801 -0.036,0.20085 -0.07579,0.19896 -0.57981,0.72192 -0.396014,0.41307 -0.689708,0.66697 v 0.0114 h 1.146356 q 0,-0.0872 0.0057,-0.108 0.01516,-0.0606 0.07579,-0.0606 0.08716,0 0.08716,0.17811 0,0.0341 -0.0038,0.0872 -0.0038,0.0531 -0.0038,0.0625 z"
         style="font-style:normal;font-variant:normal;font-weight:normal;font-stretch:normal;font-size:3.88055563px;font-family:'Serto Kharput';-inkscape-font-specification:'Serto Kharput';stroke-width:0.26458332"
         id="path13697"
         inkscape:connector-curvature="0" />
    </g>
    <g
       aria-label="3"
       style="font-style:normal;font-weight:normal;font-size:10.58333302px;line-height:1.25;font-family:sans-serif;letter-spacing:0px;word-spacing:0px;display:inline;fill:#000000;fill-opacity:1;stroke:none;stroke-width:0.26458332"
       id="text13680"
       transform="translate(0,-2.6458334)">
      <path
         d="m 39.210124,269.60998 q 0,0.31453 -0.253903,0.52486 -0.238746,0.19895 -0.558967,0.19895 -0.204639,0 -0.424436,-0.0872 -0.278536,-0.1099 -0.278536,-0.22359 0,-0.0758 0.0739,-0.0758 0.0095,0 0.104215,0.0587 0.115583,0.072 0.216007,0.1099 0.155374,0.0587 0.312642,0.0587 0.246325,0 0.441489,-0.15348 0.208429,-0.16485 0.208429,-0.40549 0,-0.2539 -0.233061,-0.42065 -0.210323,-0.15158 -0.471806,-0.15158 -0.106109,0 -0.106109,-0.0796 0,-0.0701 0.09095,-0.0796 -0.02463,0.002 0.140215,0.002 0.195165,0 0.33917,-0.11748 0.153479,-0.12505 0.153479,-0.31643 0,-0.20274 -0.164848,-0.33159 -0.153479,-0.11937 -0.361907,-0.11937 -0.341065,0 -0.524861,0.21222 -0.01326,0.0171 -0.04548,0.0455 -0.01516,0.009 -0.0379,0.009 -0.07769,0 -0.07769,-0.0739 0,-0.0739 0.164848,-0.19138 0.227376,-0.16105 0.521071,-0.16105 0.278536,0 0.47749,0.16484 0.210323,0.17433 0.210323,0.44718 0,0.35622 -0.365697,0.52865 0.198954,0.089 0.320222,0.24822 0.130741,0.17242 0.130741,0.37896 z"
         style="font-style:normal;font-variant:normal;font-weight:normal;font-stretch:normal;font-size:3.88055563px;font-family:'Serto Kharput';-inkscape-font-specification:'Serto Kharput';stroke-width:0.26458332"
         id="path13700"
         inkscape:connector-curvature="0" />
    </g>
    <g
       aria-label="4"
       style="font-style:normal;font-weight:normal;font-size:10.58333302px;line-height:1.25;font-family:sans-serif;letter-spacing:0px;word-spacing:0px;display:inline;fill:#000000;fill-opacity:1;stroke:none;stroke-width:0.26458332"
       id="text13684"
       transform="translate(0,-2.6458334)">
      <path
         d="m 39.198755,294.00987 q 0,0.0796 -0.106109,0.0796 h -0.428225 q -0.106109,0 -0.106109,-0.0796 0,-0.0815 0.106109,-0.0815 h 0.134531 l -0.0019,-0.50591 h -1.055405 v -0.1838 l 0.884873,-1.5291 h 0.33159 v 1.55373 q 0.162953,0 0.144005,-0.002 0.09663,0.0114 0.09663,0.0815 0,0.0701 -0.09853,0.0815 0.01705,-0.002 -0.142111,-0.002 v 0.50591 h 0.134531 q 0.106109,0 0.106109,0.0815 z m -0.401698,-0.74656 v -1.39268 h -0.08337 l -0.805291,1.39268 z"
         style="font-style:normal;font-variant:normal;font-weight:normal;font-stretch:normal;font-size:3.88055563px;font-family:'Serto Kharput';-inkscape-font-specification:'Serto Kharput';stroke-width:0.26458332"
         id="path13703"
         inkscape:connector-curvature="0" />
    </g>
    <g
       aria-label="stitcher"
       style="font-style:normal;font-weight:normal;font-size:10.58333302px;line-height:1.25;font-family:sans-serif;letter-spacing:0px;word-spacing:0px;display:inline;fill:#000000;fill-opacity:1;stroke:none;stroke-width:0.26458332"
       id="text13710">
      <path
         d="m 50.442007,201.57171 q 0,0.30386 -0.306269,0.46543 -0.24598,0.13022 -0.576364,0.13022 -0.434082,0 -0.709001,-0.21945 0,0.14952 -0.09164,0.14952 -0.09164,0 -0.09164,-0.12299 v -0.3762 q 0,-0.12299 0.09164,-0.12299 0.06994,0 0.09405,0.10369 0.03376,0.1447 0.04823,0.16399 0.173633,0.24357 0.651123,0.24357 0.248391,0 0.44614,-0.0844 0.260449,-0.11334 0.260449,-0.33038 0,-0.26286 -0.388262,-0.35209 -0.361735,-0.0651 -0.721059,-0.13023 -0.388262,-0.11093 -0.388262,-0.43167 0,-0.25803 0.274919,-0.40032 0.219452,-0.11093 0.506429,-0.11093 0.378616,0 0.614949,0.18569 0,-0.12058 0.09164,-0.12058 0.09405,0 0.09405,0.12299 v 0.31351 q 0,0.12299 -0.09405,0.12299 -0.06511,0 -0.09164,-0.10852 -0.03617,-0.13987 -0.135047,-0.20981 -0.173633,-0.12058 -0.472668,-0.12058 -0.202571,0 -0.373792,0.0675 -0.229099,0.0916 -0.229099,0.26527 0,0.19292 0.284565,0.26286 l 0.593245,0.0965 q 0.371381,0.0724 0.513664,0.25563 0.103697,0.13505 0.103697,0.2918 z"
         style="font-style:normal;font-variant:normal;font-weight:normal;font-stretch:normal;font-size:4.93888903px;font-family:'Serto Kharput';-inkscape-font-specification:'Serto Kharput';stroke-width:0.26458332"
         id="path13714" />
      <path
         d="m 53.270775,201.83698 q 0,0.11817 -0.30868,0.23875 -0.238746,0.0941 -0.450963,0.0941 -0.301446,0 -0.504018,-0.15434 -0.221864,-0.16881 -0.221864,-0.46061 l -0.0024,-1.09727 h -0.494371 q -0.135048,0 -0.135048,-0.10369 0,-0.10129 0.135048,-0.10129 h 0.494371 l 0.0024,-0.84887 q 0,-0.13505 0.101286,-0.13505 0.103697,0 0.103697,0.13505 l -0.0024,0.84887 h 0.979096 q 0.135047,0 0.135047,0.1037 0,0.10128 -0.135047,0.10128 h -0.979096 l 0.0024,1.09727 q 0,0.19775 0.159164,0.31109 0.142282,0.10128 0.347265,0.10128 0.08923,0 0.32315,-0.0627 0.05064,-0.0121 0.20016,-0.0941 0.139871,-0.0748 0.15434,-0.0748 0.09646,0 0.09646,0.10129 z"
         style="font-style:normal;font-variant:normal;font-weight:normal;font-stretch:normal;font-size:4.93888903px;font-family:'Serto Kharput';-inkscape-font-specification:'Serto Kharput';stroke-width:0.26458332"
         id="path13716" />
      <path
         d="m 54.329453,199.77027 h -0.299034 v -0.52331 h 0.299034 z m -0.202572,2.11735 v -1.43006 H 53.95566 q -0.135048,0 -0.135048,-0.10369 0,-0.10129 0.135048,-0.10129 h 0.373793 v 1.63504 z m 0.378616,0 q 0.135048,0 0.135048,0.1037 0,0.10129 -0.135048,0.10129 h -0.545014 q -0.135048,0 -0.135048,-0.10129 0,-0.1037 0.135048,-0.1037 z"
         style="font-style:normal;font-variant:normal;font-weight:normal;font-stretch:normal;font-size:4.93888903px;font-family:'Serto Kharput';-inkscape-font-specification:'Serto Kharput';stroke-width:0.26458332"
         id="path13718" />
      <path
         d="m 57.466901,201.83698 q 0,0.11817 -0.30868,0.23875 -0.238745,0.0941 -0.450963,0.0941 -0.301446,0 -0.504018,-0.15434 -0.221864,-0.16881 -0.221864,-0.46061 l -0.0024,-1.09727 h -0.494372 q -0.135047,0 -0.135047,-0.10369 0,-0.10129 0.135047,-0.10129 h 0.494372 l 0.0024,-0.84887 q 0,-0.13505 0.101286,-0.13505 0.103697,0 0.103697,0.13505 l -0.0024,0.84887 h 0.979096 q 0.135048,0 0.135048,0.1037 0,0.10128 -0.135048,0.10128 h -0.979096 l 0.0024,1.09727 q 0,0.19775 0.159164,0.31109 0.142282,0.10128 0.347265,0.10128 0.08923,0 0.32315,-0.0627 0.05064,-0.0121 0.20016,-0.0941 0.139871,-0.0748 0.154341,-0.0748 0.09646,0 0.09646,0.10129 z"
         style="font-style:normal;font-variant:normal;font-weight:normal;font-stretch:normal;font-size:4.93888903px;font-family:'Serto Kharput';-inkscape-font-specification:'Serto Kharput';stroke-width:0.26458332"
         id="path13720" />
      <path
         d="m 60.03522,201.70676 q 0,0.0941 -0.221864,0.23874 -0.352089,0.23151 -0.788583,0.23151 -0.441316,0 -0.725881,-0.27733 -0.284565,-0.27974 -0.284565,-0.71865 0,-0.44372 0.289388,-0.73311 0.289388,-0.2918 0.733116,-0.2918 0.419613,0 0.706589,0.2508 v -0.0796 q 0.0024,-0.10611 0.08923,-0.10611 0.09405,0 0.09405,0.12299 v 0.41479 q 0,0.12299 -0.09405,0.12299 -0.03617,0 -0.06029,-0.0241 l -0.04341,-0.14228 q -0.03617,-0.12299 -0.190514,-0.23633 -0.188102,-0.13746 -0.511252,-0.13746 -0.371381,0 -0.60048,0.23392 -0.229099,0.23151 -0.229099,0.60289 0,0.36415 0.233922,0.59084 0.236333,0.22668 0.60048,0.22668 0.458198,0 0.834402,-0.33279 0.05064,-0.0434 0.07958,-0.0434 0.08923,0 0.08923,0.0868 z"
         style="font-style:normal;font-variant:normal;font-weight:normal;font-stretch:normal;font-size:4.93888903px;font-family:'Serto Kharput';-inkscape-font-specification:'Serto Kharput';stroke-width:0.26458332"
         id="path13722" />
      <path
         d="m 63.030386,201.99132 q 0,0.10129 -0.135047,0.10129 h -0.545014 q -0.135048,0 -0.135048,-0.10129 0,-0.1037 0.135048,-0.1037 h 0.171221 l -0.0024,-0.92845 q 0,-0.24598 -0.180867,-0.38585 -0.163987,-0.12781 -0.417201,-0.12781 -0.233922,0 -0.426848,0.14469 -0.09164,0.0699 -0.325561,0.32797 v 0.96945 h 0.171221 q 0.135048,0 0.135048,0.1037 0,0.10129 -0.135048,0.10129 h -0.545014 q -0.135048,0 -0.135048,-0.10129 0,-0.1037 0.135048,-0.1037 h 0.171221 v -2.61896 h -0.171221 q -0.135048,0 -0.135048,-0.1037 0,-0.10128 0.135048,-0.10128 h 0.373793 v 1.56028 q 0.349677,-0.38103 0.766878,-0.38103 0.32315,0 0.547426,0.1857 0.241156,0.19774 0.241156,0.51607 v 0.94292 h 0.171222 q 0.135047,0 0.135047,0.1037 z"
         style="font-style:normal;font-variant:normal;font-weight:normal;font-stretch:normal;font-size:4.93888903px;font-family:'Serto Kharput';-inkscape-font-specification:'Serto Kharput';stroke-width:0.26458332"
         id="path13724" />
      <path
         d="m 65.8061,201.78875 q 0,0.13264 -0.405143,0.27733 -0.267684,0.0941 -0.547426,0.0941 -0.458198,0 -0.778936,-0.29903 -0.320739,-0.29904 -0.320739,-0.75482 0,-0.41721 0.306269,-0.69695 0.299035,-0.2725 0.718647,-0.2725 0.458198,0 0.742763,0.29662 0.284565,0.29662 0.279742,0.75482 h -1.86173 q 0.04823,0.36173 0.296623,0.57636 0.250803,0.21222 0.617361,0.21222 0.450963,0 0.793405,-0.24598 0.04582,-0.0338 0.07235,-0.0338 0.08682,0 0.08682,0.0916 z m -0.188102,-0.78376 q -0.05547,-0.30868 -0.289388,-0.49437 -0.233922,-0.1881 -0.549838,-0.1881 -0.318327,0 -0.549837,0.18569 -0.23151,0.18569 -0.286976,0.49678 z"
         style="font-style:normal;font-variant:normal;font-weight:normal;font-stretch:normal;font-size:4.93888903px;font-family:'Serto Kharput';-inkscape-font-specification:'Serto Kharput';stroke-width:0.26458332"
         id="path13726" />
      <path
         d="m 68.487762,200.50821 q 0,0.10611 -0.106109,0.10611 -0.03617,0 -0.151929,-0.1037 -0.115755,-0.10611 -0.221864,-0.10611 -0.195337,0 -0.520898,0.24357 -0.12299,0.0916 -0.44614,0.38103 v 0.86092 q 0.202571,0 0.183279,-0.002 0.12299,0.0145 0.12299,0.1037 0,0.10129 -0.135048,0.10129 H 66.66944 q -0.137459,0 -0.137459,-0.10129 0,-0.0892 0.12299,-0.1037 -0.01929,0.002 0.183279,0.002 v -1.43247 q -0.20016,0 -0.18569,0.002 -0.120579,-0.0145 -0.120579,-0.10611 0,-0.10129 0.135048,-0.10129 h 0.373793 v 0.51125 q 0.291799,-0.26286 0.436493,-0.36173 0.289388,-0.20016 0.518487,-0.20016 0.12299,0 0.299035,0.0965 0.192925,0.10611 0.192925,0.20981 z"
         style="font-style:normal;font-variant:normal;font-weight:normal;font-stretch:normal;font-size:4.93888903px;font-family:'Serto Kharput';-inkscape-font-specification:'Serto Kharput';stroke-width:0.26458332"
         id="path13728" />
    </g>
  </g>
  <g
     inkscape:groupmode="layer"
     id="layer5"
     inkscape:label="knobs"
     style="display:none">
    <g
       style="display:inline"
       transform="translate(-52.4495,-62.584489)"
       id="layer1-9"
       inkscape:label="Layer 1">
      <path
         id="path110586"
         d="m 117.2098,86.92615 c 0,5.247569 -4.25397,9.500195 -9.50016,9.500195 -5.24757,0 -9.500202,-4.252626 -9.500202,-9.500195 0,-5.24619 4.252632,-9.500193 9.500202,-9.500193 5.24619,0 9.50016,4.254003 9.50016,9.500193"
         style="fill:#000000;fill-opacity:1;fill-rule:nonzero;stroke:none;stroke-width:0.35277775"
         inkscape:connector-curvature="0" />
      <path
         id="path110588"
         d="m 108.0252,77.463165 c -0.10337,-0.02343 -0.2067,-0.03721 -0.31556,-0.03721 -0.10887,0 -0.21361,0.01379 -0.3156,0.03721 v 9.582876 h 0.63116 z m 0,0"
         style="fill:#ffffff;fill-opacity:1;fill-rule:evenodd;stroke:none;stroke-width:0.35277775"
         inkscape:connector-curvature="0" />
    </g>
    <g
       style="display:inline"
       inkscape:label="Layer 1"
       id="g13313"
       transform="translate(-91.756966,-21.11459)">
      <path
         inkscape:connector-curvature="0"
         style="fill:#000000;fill-opacity:1;fill-rule:nonzero;stroke:none;stroke-width:0.35277775"
         d="m 145.80756,66.395451 c 0,2.761586 -2.23791,5.0009 -4.99949,5.0009 -2.76162,0 -5.00091,-2.239314 -5.00091,-5.0009 0,-2.76159 2.23929,-4.999524 5.00091,-4.999524 2.76158,0 4.99949,2.237934 4.99949,4.999524"
         id="path13309" />
      <path
         inkscape:connector-curvature="0"
         style="fill:#ffffff;fill-opacity:1;fill-rule:evenodd;stroke:none;stroke-width:0.35277775"
         d="m 140.97479,61.41522 c -0.0551,-0.01242 -0.11024,-0.0193 -0.16672,-0.0193 -0.0579,0 -0.11162,0.0069 -0.16676,0.0193 v 5.043618 h 0.33348 z m 0,0"
         id="path13311" />
    </g>
    <g
       style="display:inline"
       transform="translate(-77.99863,-21.11459)"
       id="g13512"
       inkscape:label="Layer 1">
      <path
         id="path13508"
         d="m 145.80756,66.395451 c 0,2.761586 -2.23791,5.0009 -4.99949,5.0009 -2.76162,0 -5.00091,-2.239314 -5.00091,-5.0009 0,-2.76159 2.23929,-4.999524 5.00091,-4.999524 2.76158,0 4.99949,2.237934 4.99949,4.999524"
         style="fill:#000000;fill-opacity:1;fill-rule:nonzero;stroke:none;stroke-width:0.35277775"
         inkscape:connector-curvature="0" />
      <path
         id="path13510"
         d="m 140.97479,61.41522 c -0.0551,-0.01242 -0.11024,-0.0193 -0.16672,-0.0193 -0.0579,0 -0.11162,0.0069 -0.16676,0.0193 v 5.043618 h 0.33348 z m 0,0"
         style="fill:#ffffff;fill-opacity:1;fill-rule:evenodd;stroke:none;stroke-width:0.35277775"
         inkscape:connector-curvature="0" />
    </g>
    <g
       style="display:inline"
       transform="translate(-91.756966,-2.59376)"
       id="g13518"
       inkscape:label="Layer 1">
      <path
         id="path13514"
         d="m 145.80756,66.395451 c 0,2.761586 -2.23791,5.0009 -4.99949,5.0009 -2.76162,0 -5.00091,-2.239314 -5.00091,-5.0009 0,-2.76159 2.23929,-4.999524 5.00091,-4.999524 2.76158,0 4.99949,2.237934 4.99949,4.999524"
         style="fill:#000000;fill-opacity:1;fill-rule:nonzero;stroke:none;stroke-width:0.35277775"
         inkscape:connector-curvature="0" />
      <path
         id="path13516"
         d="m 140.97479,61.41522 c -0.0551,-0.01242 -0.11024,-0.0193 -0.16672,-0.0193 -0.0579,0 -0.11162,0.0069 -0.16676,0.0193 v 5.043618 h 0.33348 z m 0,0"
         style="fill:#ffffff;fill-opacity:1;fill-rule:evenodd;stroke:none;stroke-width:0.35277775"
         inkscape:connector-curvature="0" />
    </g>
    <g
       style="display:inline"
       inkscape:label="Layer 1"
       id="g13524"
       transform="translate(-77.469466,-2.59376)">
      <path
         inkscape:connector-curvature="0"
         style="fill:#000000;fill-opacity:1;fill-rule:nonzero;stroke:none;stroke-width:0.35277775"
         d="m 145.80756,66.395451 c 0,2.761586 -2.23791,5.0009 -4.99949,5.0009 -2.76162,0 -5.00091,-2.239314 -5.00091,-5.0009 0,-2.76159 2.23929,-4.999524 5.00091,-4.999524 2.76158,0 4.99949,2.237934 4.99949,4.999524"
         id="path13520" />
      <path
         inkscape:connector-curvature="0"
         style="fill:#ffffff;fill-opacity:1;fill-rule:evenodd;stroke:none;stroke-width:0.35277775"
         d="m 140.97479,61.41522 c -0.0551,-0.01242 -0.11024,-0.0193 -0.16672,-0.0193 -0.0579,0 -0.11162,0.0069 -0.16676,0.0193 v 5.043618 h 0.33348 z m 0,0"
         id="path13522" />
    </g>
    <g
       style="display:inline"
       transform="translate(-77.469466,12.22291)"
       id="g13530"
       inkscape:label="Layer 1">
      <path
         id="path13526"
         d="m 145.80756,66.395451 c 0,2.761586 -2.23791,5.0009 -4.99949,5.0009 -2.76162,0 -5.00091,-2.239314 -5.00091,-5.0009 0,-2.76159 2.23929,-4.999524 5.00091,-4.999524 2.76158,0 4.99949,2.237934 4.99949,4.999524"
         style="fill:#000000;fill-opacity:1;fill-rule:nonzero;stroke:none;stroke-width:0.35277775"
         inkscape:connector-curvature="0" />
      <path
         id="path13528"
         d="m 140.97479,61.41522 c -0.0551,-0.01242 -0.11024,-0.0193 -0.16672,-0.0193 -0.0579,0 -0.11162,0.0069 -0.16676,0.0193 v 5.043618 h 0.33348 z m 0,0"
         style="fill:#ffffff;fill-opacity:1;fill-rule:evenodd;stroke:none;stroke-width:0.35277775"
         inkscape:connector-curvature="0" />
    </g>
    <g
       style="display:inline"
       inkscape:label="Layer 1"
       id="g13580"
       transform="translate(-134.09029,-60.35688)">
      <path
         inkscape:connector-curvature="0"
         style="fill:#000000;fill-opacity:1;fill-rule:nonzero;stroke:none;stroke-width:0.35277775"
         d="m 145.80756,66.395451 c 0,2.761586 -2.23791,5.0009 -4.99949,5.0009 -2.76162,0 -5.00091,-2.239314 -5.00091,-5.0009 0,-2.76159 2.23929,-4.999524 5.00091,-4.999524 2.76158,0 4.99949,2.237934 4.99949,4.999524"
         id="path13576" />
      <path
         inkscape:connector-curvature="0"
         style="fill:#ffffff;fill-opacity:1;fill-rule:evenodd;stroke:none;stroke-width:0.35277775"
         d="m 140.97479,61.41522 c -0.0551,-0.01242 -0.11024,-0.0193 -0.16672,-0.0193 -0.0579,0 -0.11162,0.0069 -0.16676,0.0193 v 5.043618 h 0.33348 z m 0,0"
         id="path13578" />
    </g>
    <g
       style="display:inline"
       transform="translate(-134.09029,-49.244369)"
       id="g13586"
       inkscape:label="Layer 1">
      <path
         id="path13582"
         d="m 145.80756,66.395451 c 0,2.761586 -2.23791,5.0009 -4.99949,5.0009 -2.76162,0 -5.00091,-2.239314 -5.00091,-5.0009 0,-2.76159 2.23929,-4.999524 5.00091,-4.999524 2.76158,0 4.99949,2.237934 4.99949,4.999524"
         style="fill:#000000;fill-opacity:1;fill-rule:nonzero;stroke:none;stroke-width:0.35277775"
         inkscape:connector-curvature="0" />
      <path
         id="path13584"
         d="m 140.97479,61.41522 c -0.0551,-0.01242 -0.11024,-0.0193 -0.16672,-0.0193 -0.0579,0 -0.11162,0.0069 -0.16676,0.0193 v 5.043618 h 0.33348 z m 0,0"
         style="fill:#ffffff;fill-opacity:1;fill-rule:evenodd;stroke:none;stroke-width:0.35277775"
         inkscape:connector-curvature="0" />
    </g>
    <g
       style="display:inline"
       inkscape:label="Layer 1"
       id="g13592"
       transform="translate(-122.44861,-49.244369)">
      <path
         inkscape:connector-curvature="0"
         style="fill:#000000;fill-opacity:1;fill-rule:nonzero;stroke:none;stroke-width:0.35277775"
         d="m 145.80756,66.395451 c 0,2.761586 -2.23791,5.0009 -4.99949,5.0009 -2.76162,0 -5.00091,-2.239314 -5.00091,-5.0009 0,-2.76159 2.23929,-4.999524 5.00091,-4.999524 2.76158,0 4.99949,2.237934 4.99949,4.999524"
         id="path13588" />
      <path
         inkscape:connector-curvature="0"
         style="fill:#ffffff;fill-opacity:1;fill-rule:evenodd;stroke:none;stroke-width:0.35277775"
         d="m 140.97479,61.41522 c -0.0551,-0.01242 -0.11024,-0.0193 -0.16672,-0.0193 -0.0579,0 -0.11162,0.0069 -0.16676,0.0193 v 5.043618 h 0.33348 z m 0,0"
         id="path13590" />
    </g>
    <path
       transform="translate(-122.44861,-60.35688)"
       id="path13606"
       d="m 145.80756,66.395451 c 0,2.761586 -2.23791,5.0009 -4.99949,5.0009 -2.76162,0 -5.00091,-2.239314 -5.00091,-5.0009 0,-2.76159 2.23929,-4.999524 5.00091,-4.999524 2.76158,0 4.99949,2.237934 4.99949,4.999524"
       style="display:inline;fill:#000000;fill-opacity:1;fill-rule:nonzero;stroke:none;stroke-width:0.35277775"
       inkscape:connector-curvature="0" />
    <g
       style="display:inline"
       inkscape:label="Layer 1"
       id="g13616"
       transform="translate(-110.80696,-60.35688)">
      <path
         inkscape:connector-curvature="0"
         style="fill:#000000;fill-opacity:1;fill-rule:nonzero;stroke:none;stroke-width:0.35277775"
         d="m 145.80756,66.395451 c 0,2.761586 -2.23791,5.0009 -4.99949,5.0009 -2.76162,0 -5.00091,-2.239314 -5.00091,-5.0009 0,-2.76159 2.23929,-4.999524 5.00091,-4.999524 2.76158,0 4.99949,2.237934 4.99949,4.999524"
         id="path13612" />
      <path
         inkscape:connector-curvature="0"
         style="fill:#ffffff;fill-opacity:1;fill-rule:evenodd;stroke:none;stroke-width:0.35277775"
         d="m 140.97479,61.41522 c -0.0551,-0.01242 -0.11024,-0.0193 -0.16672,-0.0193 -0.0579,0 -0.11162,0.0069 -0.16676,0.0193 v 5.043618 h 0.33348 z m 0,0"
         id="path13614" />
    </g>
    <text
       transform="translate(0,-196.45833)"
       xml:space="preserve"
       style="font-style:normal;font-weight:normal;font-size:10.58333302px;line-height:1.25;font-family:sans-serif;letter-spacing:0px;word-spacing:0px;display:inline;fill:#000000;fill-opacity:1;stroke:none;stroke-width:0.26458332"
       x="51.744938"
       y="209.6875"
       id="text13186"><tspan
         sodipodi:role="line"
         id="tspan13184"
         x="51.744938"
         y="209.6875"
         style="font-style:normal;font-variant:normal;font-weight:normal;font-stretch:normal;font-size:2.82222223px;font-family:'Serto Kharput';-inkscape-font-specification:'Serto Kharput';stroke-width:0.26458332">freq</tspan></text>
    <text
       transform="translate(0,-196.45833)"
       xml:space="preserve"
       style="font-style:normal;font-weight:normal;font-size:10.58333302px;line-height:1.25;font-family:sans-serif;letter-spacing:0px;word-spacing:0px;display:inline;fill:#000000;fill-opacity:1;stroke:none;stroke-width:0.26458332"
       x="48.305359"
       y="202.09019"
       id="text13046"><tspan
         sodipodi:role="line"
         id="tspan13044"
         x="48.305359"
         y="202.09019"
         style="font-style:normal;font-variant:normal;font-weight:normal;font-stretch:normal;font-size:4.93888903px;font-family:'Serto Kharput';-inkscape-font-specification:'Serto Kharput';stroke-width:0.26458332">stitcher</tspan></text>
  </g>
</svg>
